<svg width="640" height="480" viewBox="0 0 640 480" fill="none" xmlns="http://www.w3.org/2000/svg">
  <rect width="640" height="480" rx="32" fill="#F4E4C8"/>
  <rect x="75" y="88" width="490" height="282" rx="22" fill="#102A43"/>
  <rect x="102" y="114" width="436" height="228" rx="14" fill="#D9E2EC"/>
  <rect x="215" y="364" width="208" height="26" rx="13" fill="#7C4A21"/>
  <rect x="258" y="390" width="124" height="20" rx="10" fill="#9C6644"/>
  <rect x="160" y="160" width="154" height="18" rx="9" fill="#F59E0B"/>
  <rect x="160" y="194" width="240" height="14" rx="7" fill="#486581"/>
  <rect x="160" y="220" width="208" height="14" rx="7" fill="#486581"/>
  <rect x="160" y="246" width="182" height="14" rx="7" fill="#486581"/>
  <circle cx="448" cy="220" r="48" fill="#D97706"/>
  <rect x="465" y="286" width="40" height="54" rx="8" fill="#7C4A21"/>
  <path d="M485 286C485 262.804 466.196 244 443 244H441C417.804 244 399 262.804 399 286V290H485V286Z" fill="#FFF7ED"/>
</svg>
